<?xml version="1.0" encoding="iso-8859-1"?>
<!-- Generator: Adobe Illustrator 19.0.0, SVG Export Plug-In . SVG Version: 6.00 Build 0)  -->
<svg version="1.1" id="Layer_1" xmlns="http://www.w3.org/2000/svg" xmlns:xlink="http://www.w3.org/1999/xlink" x="0px" y="0px"
	 viewBox="0 0 512 512" style="enable-background:new 0 0 512 512;" xml:space="preserve">
<circle style="fill:#FFC25D;" cx="256" cy="256" r="248.163"/>
<path style="fill:#FFDE90;" d="M504.163,256H7.837C7.837,118.941,118.941,7.837,256,7.837S504.163,118.941,504.163,256z"/>
<circle style="fill:#FFFFFF;" cx="256" cy="256" r="208.98"/>
<path style="fill:#9FE1ED;" d="M285.503,263.478c-10.333,5.965-23.546,2.425-29.511-7.908c-5.965-10.333-2.425-23.546,7.908-29.511
	c10.333-5.965,84.143-37.412,90.108-27.079C359.973,209.314,295.836,257.513,285.503,263.478z"/>
<path style="fill:#5BCDE4;" d="M256.366,256.209l97.637-57.225c5.966,10.334-58.163,58.528-68.496,64.494
	C275.39,269.316,262.507,266.053,256.366,256.209z"/>
<circle style="fill:#FFFFFF;" cx="256" cy="256" r="32.2"/>
<path d="M437.019,74.981C388.668,26.628,324.38,0,256,0S123.332,26.628,74.981,74.981S0,187.62,0,256s26.628,132.668,74.981,181.019
	S187.62,512,256,512s132.668-26.628,181.019-74.981S512,324.38,512,256S485.372,123.332,437.019,74.981z M425.937,425.937
	c-45.392,45.391-105.744,70.39-169.937,70.39s-124.545-24.998-169.937-70.39C40.672,380.544,15.673,320.193,15.673,256
	s24.998-124.545,70.39-169.937C131.455,40.672,191.806,15.673,256,15.673s124.545,24.998,169.937,70.39
	c45.391,45.392,70.39,105.744,70.39,169.937S471.328,380.544,425.937,425.937z"/>
<path d="M169.796,404.114h172.408v-47.02H169.796V404.114z M185.469,372.767h141.061v15.673H185.469V372.767z"/>
<path d="M256,39.184C136.447,39.184,39.184,136.447,39.184,256S136.447,472.816,256,472.816S472.816,375.553,472.816,256
	S375.553,39.184,256,39.184z M256,457.143c-110.911,0-201.143-90.232-201.143-201.143S145.089,54.857,256,54.857
	S457.143,145.089,457.143,256S366.911,457.143,256,457.143z"/>
<path d="M310.862,198.007c-18.434,6.422-37.258,14.52-46.282,18.893c-2.766-0.607-5.635-0.936-8.581-0.936
	c-22.076,0-40.035,17.961-40.035,40.036s17.96,40.036,40.035,40.036c18.265,0,33.701-12.299,38.49-29.048
	c8.675-5.948,25.54-18.611,39.996-31.192c24.167-21.037,31.297-32.075,26.303-40.732C355.72,186.294,342.19,187.092,310.862,198.007
	z M256,280.363c-13.433,0-24.362-10.929-24.362-24.363c0-13.433,10.929-24.363,24.362-24.363s24.362,10.93,24.362,24.363
	S269.433,280.363,256,280.363z M320.465,227.176c-8.445,7.161-17.75,14.437-25.396,20.111c-1.87-8.393-6.379-15.797-12.612-21.298
	c8.071-3.505,18.419-7.725,28.908-11.527c16.83-6.101,26.508-8.429,31.887-9.271C339.936,209.305,333.38,216.227,320.465,227.176z"
	/>
<rect x="248.163" y="67.918" width="15.673" height="31.347"/>
<rect x="187.96" y="91.713" transform="matrix(-0.2588 -0.9659 0.9659 -0.2588 173.3295 332.1009)" width="52.243" height="15.672"/>
<rect x="115.357" y="133.64" transform="matrix(0.7071 0.7071 -0.7071 0.7071 141.4772 -58.6034)" width="52.244" height="15.673"/>
<rect x="73.438" y="206.261" transform="matrix(0.9659 0.2588 -0.2588 0.9659 58.8022 -18.4723)" width="52.243" height="15.673"/>
<rect x="386.319" y="290.094" transform="matrix(0.9659 0.2588 -0.2588 0.9659 91.1591 -96.5921)" width="52.243" height="15.673"/>
<rect x="91.731" y="271.81" transform="matrix(0.2588 0.9659 -0.9659 0.2588 361.5793 124.6499)" width="15.673" height="52.243"/>
<rect x="386.328" y="206.242" transform="matrix(0.9659 -0.2588 0.2588 0.9659 -41.3526 114.039)" width="52.243" height="15.673"/>
<rect x="344.4" y="133.637" transform="matrix(0.7071 -0.7071 0.7071 0.7071 8.4867 303.4351)" width="52.244" height="15.673"/>
<rect x="290.077" y="73.444" transform="matrix(-0.9659 -0.2589 0.2589 -0.9659 559.8911 272.8688)" width="15.673" height="52.245"/>
<rect x="154.126" y="98.848" transform="matrix(-0.5 -0.866 0.866 -0.5 162.3096 307.0763)" width="31.346" height="15.673"/>
<rect x="91.019" y="161.959" transform="matrix(-0.866 -0.5 0.5 -0.866 114.1889 370.1894)" width="31.346" height="15.673"/>
<rect x="389.65" y="334.378" transform="matrix(0.866 0.5 -0.5 0.866 225.4166 -156.816)" width="31.346" height="15.673"/>
<rect x="67.918" y="248.163" width="31.347" height="15.673"/>
<rect x="412.735" y="248.163" width="31.347" height="15.673"/>
<rect x="98.848" y="326.534" transform="matrix(0.5 0.866 -0.866 0.5 349.6986 78.7093)" width="15.673" height="31.346"/>
<rect x="389.65" y="161.959" transform="matrix(0.866 -0.5 0.5 0.866 -30.5942 225.4156)" width="31.346" height="15.673"/>
<rect x="334.357" y="91.019" transform="matrix(-0.866 -0.5 0.5 -0.866 585.1928 370.1892)" width="15.673" height="31.346"/>
<g>
</g>
<g>
</g>
<g>
</g>
<g>
</g>
<g>
</g>
<g>
</g>
<g>
</g>
<g>
</g>
<g>
</g>
<g>
</g>
<g>
</g>
<g>
</g>
<g>
</g>
<g>
</g>
<g>
</g>
</svg>
