<?xml version="1.0" encoding="iso-8859-1"?>
<!-- Generator: Adobe Illustrator 19.0.0, SVG Export Plug-In . SVG Version: 6.00 Build 0)  -->
<svg version="1.1" id="Layer_1" xmlns="http://www.w3.org/2000/svg" xmlns:xlink="http://www.w3.org/1999/xlink" x="0px" y="0px"
	 viewBox="0 0 512.001 512.001" style="enable-background:new 0 0 512.001 512.001;" xml:space="preserve">
<rect x="12.8" y="243.2" style="fill:#FF877F;" width="435.2" height="256"/>
<polygon style="fill:#C5DFE2;" points="4.975,243.2 225.101,12.8 502.793,12.8 445.193,243.2 "/>
<g>
	<path style="fill:#573A32;" d="M506.581,9.848C501.726,3.635,494.285,0,486.4,0h-256c-6.793,0-13.303,2.697-18.099,7.501
		l-204.8,204.8C2.697,217.097,0,223.608,0,230.4v256C0,500.54,11.46,512,25.6,512h409.6c14.14,0,25.6-11.46,25.6-25.6V233.549
		l50.432-201.745C513.152,24.158,511.428,16.06,506.581,9.848z M435.2,486.4H25.6V256h409.6V486.4z M435.2,230.4H25.6L230.4,25.6
		h256L435.2,230.4z"/>
	<rect x="332.8" y="281.6" style="fill:#573A32;" width="76.8" height="25.6"/>
</g>
<g>
</g>
<g>
</g>
<g>
</g>
<g>
</g>
<g>
</g>
<g>
</g>
<g>
</g>
<g>
</g>
<g>
</g>
<g>
</g>
<g>
</g>
<g>
</g>
<g>
</g>
<g>
</g>
<g>
</g>
</svg>
